#!OML:ASF H:\GeneralSubjects\Female5\Project 1\Capture day 1\Session 1\Female5.ASF
:FULLY-SPECIFIED
:DEGREES
84
root 9.70142 16.0484 3.43691 175.626 -78.3006 -184.82
lowerback 22.7094 2.01566 6.6721
upperback -3.87263 4.62059 -0.20661
thorax -16.8668 1.34936 -5.72862
lowerneck -12.8315 0.182286 -0.200512
upperneck 44.9819 -2.08586 -1.24475
head 19.5425 -1.95575 -1.31543
rclavicle 1.95803e-014 -1.59028e-015
rhumerus -36.416 18.4488 -64.2073
rradius 49.0335
rwrist -8.09162
rhand -16.3364 -15.2273
rfingers 7.12502
rthumb 9.87561 -44.9757
lclavicle 1.95803e-014 -1.59028e-015
lhumerus -53.7469 7.16323 55.3516
lradius 37.877
lwrist -6.37139
lhand -29.1741 30.3761
lfingers 7.12502
lthumb -2.51984 60.3409
rfemur 14.6316 6.50724 33.7369
rtibia 11.1828
rfoot -14.1428 -13.8121
rtoes -14.6264
lfemur -94.658 2.73889 -13.2303
ltibia 68.4544
lfoot 337.417 11.0664
ltoes -17.846
85
root 9.47058 15.9977 3.41998 173.753 -77.957 -182.575
lowerback 21.8055 2.01806 7.32492
upperback -4.02769 4.7468 -0.199189
thorax -16.4456 1.36917 -6.0712
lowerneck -12.6527 0.152634 0.0596436
upperneck 44.9724 -2.18539 -1.37127
head 19.4763 -1.97623 -1.44281
rclavicle 3.8266e-015 3.93594e-014
rhumerus -38.0681 18.2034 -64.8474
rradius 49.9228
rwrist -8.74822
rhand -15.5569 -15.7412
rfingers 7.12502
rthumb 10.6276 -45.4525
lclavicle 3.8266e-015 3.93594e-014
lhumerus -53.1946 6.52877 55.2091
lradius 38.0341
lwrist -5.97285
lhand -29.1439 29.1631
lfingers 7.12502
lthumb -2.4907 59.1283
rfemur 14.6726 6.4135 34.1648
rtibia 12.0374
rfoot -14.3664 -13.4151
rtoes -16.1295
lfemur -93.7619 3.17108 -15.0315
ltibia 63.138
lfoot 337.966 13.5515
ltoes -17.0811
86
root 9.24053 15.9426 3.40025 172.367 -77.587 -180.739
lowerback 20.8311 2.08632 7.83136
upperback -4.19309 4.90202 -0.188077
thorax -15.9966 1.42059 -6.32604
lowerneck -12.5292 0.0901187 0.389979
upperneck 44.928 -2.29019 -1.62502
head 19.3981 -2.00073 -1.64474
rclavicle 5.2181e-015 8.74653e-015
rhumerus -39.7534 17.9778 -65.4041
rradius 50.71
rwrist -9.44662
rhand -15.0816 -15.9692
rfingers 7.12502
rthumb 11.0861 -45.6564
lclavicle 5.2181e-015 8.74653e-015
lhumerus -52.6631 5.69637 55.3706
lradius 38.5943
lwrist -5.37595
lhand -28.7281 28.236
lfingers 7.12502
lthumb -2.08911 58.2055
rfemur 14.7555 6.43172 34.6276
rtibia 12.7296
rfoot -14.9277 -13.1792
rtoes -15.893
lfemur -92.5585 3.62097 -17.0609
ltibia 57.9409
lfoot 341.368 18.6153
ltoes -23.0369
87
root 9.007 15.8824 3.38114 170.356 -77.1429 -178.273
lowerback 19.8241 2.17878 8.47442
upperback -4.33178 5.11575 -0.116874
thorax -15.4772 1.49657 -6.59601
lowerneck -12.4335 0.0962074 0.898939
upperneck 44.9347 -2.33788 -1.90243
head 19.3598 -1.9746 -1.88245
rclavicle 1.14798e-014 -7.15625e-015
rhumerus -41.3607 17.8213 -65.8775
rradius 51.2675
rwrist -10.1043
rhand -14.7029 -16.1674
rfingers 7.12502
rthumb 11.4513 -45.8346
lclavicle 1.14798e-014 -7.15625e-015
lhumerus -52.1472 4.78947 55.7026
lradius 39.3691
lwrist -4.67513
lhand -28.6747 28.3808
lfingers 7.12502
lthumb -2.03756 58.3508
rfemur 15.0544 6.46792 35.299
rtibia 13.1239
rfoot -15.6372 -12.872
rtoes -14.7423
lfemur -91.1709 4.13496 -18.9774
ltibia 53.0243
lfoot 343.113 20.9696
ltoes -24.3864
88
root 8.76585 15.8203 3.36631 167.787 -76.5814 -175.302
lowerback 18.9415 2.23951 9.38969
upperback -4.4784 5.35342 -0.0347882
thorax -15.016 1.55578 -7.01708
lowerneck -12.4338 0.186839 0.994841
upperneck 45.1172 -2.34825 -1.71648
head 19.4868 -1.94576 -1.823
rclavicle -4.47266e-015 -1.31198e-014
rhumerus -42.9706 17.8625 -66.4211
rradius 51.6453
rwrist -10.3741
rhand -14.6448 -16.4669
rfingers 7.12502
rthumb 11.5073 -46.1311
lclavicle -4.47266e-015 -1.31198e-014
lhumerus -51.5631 4.15635 55.8521
lradius 39.9018
lwrist -4.2615
lhand -28.8551 28.3643
lfingers 7.12502
lthumb -2.21173 58.3326
rfemur 15.6129 6.34855 36.0264
rtibia 13.2251
rfoot -16.2619 -12.3517
rtoes -14.3949
lfemur -89.5244 4.71693 -20.6065
ltibia 48.3513
lfoot 341.076 20.6732
ltoes -17.9433
89
root 8.52395 15.7563 3.35724 165.202 -75.9255 -172.416
lowerback 18.3386 2.26287 10.4441
upperback -4.62848 5.58922 0.0411497
thorax -14.7138 1.58963 -7.5402
lowerneck -12.1716 0.137425 0.933962
upperneck 45.1852 -2.53265 -1.53881
head 19.4581 -2.02094 -1.76051
rclavicle 1.92821e-014 3.4191e-014
rhumerus -44.5219 17.9313 -66.9447
rradius 51.8439
rwrist -9.78832
rhand -14.6244 -16.3982
rfingers 7.12502
rthumb 11.527 -46.0612
lclavicle 1.92821e-014 3.4191e-014
lhumerus -51.0254 3.61981 55.9436
lradius 40.3183
lwrist -3.93611
lhand -29.0223 28.3643
lfingers 7.12502
lthumb -2.37324 58.3308
rfemur 16.3157 6.05223 36.6223
rtibia 13.1914
rfoot -16.6049 -11.7131
rtoes -15.5133
lfemur -87.3827 5.3306 -21.6047
ltibia 43.6626
lfoot 338.185 19.0134
ltoes -13.7383
90
root 8.2888 15.6865 3.35065 162.251 -75.1061 -169.178
lowerback 18.0361 2.27564 11.6476
upperback -4.83534 5.88681 0.18459
thorax -14.642 1.61919 -8.10946
lowerneck -12.0095 0.136975 1.16212
upperneck 45.312 -2.60697 -1.65051
head 19.489 -2.04073 -1.87822
rclavicle -4.62671e-014 -1.72943e-014
rhumerus -46.0754 17.9129 -67.3223
rradius 52.0242
rwrist -8.74849
rhand -14.493 -16.4303
rfingers 7.12502
rthumb 11.6538 -46.0862
lclavicle -4.62671e-014 -1.72943e-014
lhumerus -50.7382 3.00202 56.0564
lradius 40.8108
lwrist -3.66966
lhand -28.9477 28.2162
lfingers 7.12502
lthumb -2.30124 58.1835
rfemur 16.9599 5.80958 37.359
rtibia 13.2719
rfoot -16.7638 -10.9299
rtoes -15.6267
lfemur -84.863 5.91641 -21.4003
ltibia 39.0937
lfoot 333.775 15.9415
ltoes -11.6798
91
root 8.05734 15.6127 3.34491 159.821 -74.1109 -166.443
lowerback 17.927 2.32618 12.7765
upperback -5.11811 6.24967 0.343018
thorax -14.768 1.66173 -8.65299
lowerneck -11.8102 0.244538 1.23934
upperneck 45.6129 -2.64899 -1.42875
head 19.6425 -2.03623 -1.80814
rclavicle 1.36167e-014 7.7526e-015
rhumerus -47.5359 17.8038 -67.5585
rradius 52.2004
rwrist -7.85156
rhand -14.1657 -16.3745
rfingers 7.12502
rthumb 11.9693 -46.0123
lclavicle 1.36167e-014 7.7526e-015
lhumerus -50.7339 2.45227 56.0788
lradius 41.3098
lwrist -3.57306
lhand -28.8673 27.6459
lfingers 7.12502
lthumb -2.22355 57.6141
rfemur 17.5279 5.7616 38.1149
rtibia 13.472
rfoot -16.8729 -10.0144
rtoes -15.4432
lfemur -81.9778 6.3682 -19.9109
ltibia 34.7229
lfoot 329.84 11.9886
ltoes -12.08
92
root 7.82378 15.5342 3.34024 158.364 -72.9702 -164.598
lowerback 17.8462 2.42247 13.7401
upperback -5.43125 6.63673 0.455876
thorax -14.9443 1.71768 -9.16283
lowerneck -11.7739 0.47933 1.22581
upperneck 46.0214 -2.54249 -1.04584
head 19.9325 -1.96704 -1.62155
rclavicle 2.65378e-014 1.25234e-014
rhumerus -48.6866 17.6926 -67.7431
rradius 52.2673
rwrist -7.22473
rhand -13.5687 -16.0366
rfingers 7.12502
rthumb 12.545 -45.64
lclavicle 2.65378e-014 1.25234e-014
lhumerus -50.9415 1.79664 56.0653
lradius 41.7773
lwrist -3.18897
lhand -29.3187 27.4979
lfingers 7.12502
lthumb -2.65945 57.4611
rfemur 17.958 5.81045 38.7183
rtibia 13.7593
rfoot -16.9408 -9.19096
rtoes -17.812
lfemur -78.8999 6.71493 -17.3531
ltibia 30.7016
lfoot 326.313 7.45994
ltoes -14.0236
93
root 7.5829 15.4514 3.3374 157.778 -71.7269 -163.432
lowerback 17.562 2.57374 14.5685
upperback -5.72704 7.01926 0.509395
thorax -14.9712 1.79507 -9.63777
lowerneck -11.2327 0.513449 1.68039
upperneck 45.8423 -2.52956 -1.2971
head 19.6351 -1.93462 -1.81027
rclavicle -4.62671e-014 -5.10877e-014
rhumerus -49.458 17.5001 -67.8493
rradius 52.2626
rwrist -6.91491
rhand -13.2066 -15.6282
rfingers 7.12502
rthumb 12.8941 -45.2098
lclavicle -4.62671e-014 -5.10877e-014
lhumerus -51.1818 1.18741 55.9674
lradius 42.0664
lwrist -2.84131
lhand -29.6981 28.0868
lfingers 7.12502
lthumb -3.02595 58.045
rfemur 18.2077 5.91709 39.1396
rtibia 14.0946
rfoot -17.136 -8.24228
rtoes -18.6622
lfemur -75.8541 6.90094 -14.131
ltibia 27.2652
lfoot 324.233 6.55642
ltoes -13.9909
94
root 7.33366 15.3783 3.33873 157.641 -70.3837 -162.712
lowerback 17.2655 2.7475 15.3607
upperback -5.95747 7.40565 0.527342
thorax -14.8987 1.88851 -10.1234
lowerneck -11.0437 0.646046 1.8442
upperneck 45.8617 -2.50985 -1.06547
head 19.6002 -1.88171 -1.72244
rclavicle -6.15984e-014 -1.94809e-014
rhumerus -49.8991 17.1522 -67.7992
rradius 52.327
rwrist -6.93571
rhand -13.0867 -15.2589
rfingers 7.12502
rthumb 13.0096 -44.8333
lclavicle -6.15984e-014 -1.94809e-014
lhumerus -51.4777 0.839857 55.7225
lradius 42.2018
lwrist -2.91382
lhand -29.5361 28.7589
lfingers 7.12502
lthumb -2.86943 58.7193
rfemur 18.5234 6.1435 39.462
rtibia 14.3539
rfoot -17.4688 -7.04956
rtoes -16.3069
lfemur -72.573 6.83628 -10.6219
ltibia 24.2493
lfoot 321.765 4.22262
ltoes -14.5797
95
root 7.07427 15.32 3.34166 157.799 -68.9504 -162.334
lowerback 17.0842 2.89807 16.149
upperback -6.17537 7.76997 0.473465
thorax -14.8704 1.96254 -10.6932
lowerneck -10.7726 0.886096 2.21492
upperneck 45.8712 -2.39548 -0.810029
head 19.5373 -1.75479 -1.64203
rclavicle -5.03671e-014 -2.75317e-014
rhumerus -50.1251 16.8414 -67.8115
rradius 52.5709
rwrist -7.30852
rhand -13.0505 -15.3046
rfingers 7.12502
rthumb 13.0445 -44.8767
lclavicle -5.03671e-014 -2.75317e-014
lhumerus -51.9763 0.350384 55.3776
lradius 42.2501
lwrist -2.6582
lhand -29.6909 29.2728
lfingers 7.12502
lthumb -3.019 59.2312
rfemur 19.024 6.47062 39.7219
rtibia 14.4079
rfoot -17.8183 -6.02478
rtoes -14.715
lfemur -68.9452 6.48055 -7.03077
ltibia 21.3909
lfoot 319.02 1.74169
ltoes -15.2989
96
root 6.80194 15.2712 3.34199 158.55 -67.5396 -162.463
lowerback 16.7669 3.06263 16.7438
upperback -6.39979 8.06588 0.306657
thorax -14.7797 2.02612 -11.2543
lowerneck -10.3606 1.16229 2.8337
upperneck 45.7744 -2.22223 -0.684462
head 19.3593 -1.58052 -1.65413
rclavicle -5.32619e-014 -4.99943e-014
rhumerus -50.1068 16.5042 -67.8864
rradius 52.939
rwrist -7.70747
rhand -12.8986 -15.4511
rfingers 7.12502
rthumb 13.1909 -45.0137
lclavicle -5.32619e-014 -4.99943e-014
lhumerus -52.5472 -0.33316 55.0078
lradius 42.0435
lwrist -1.97585
lhand -30.4326 30.1465
lfingers 7.12502
lthumb -3.73517 60.0935
rfemur 19.6854 7.0034 39.8662
rtibia 14.0963
rfoot -18.0936 -5.55434
rtoes -15.4151
lfemur -65.2229 5.84974 -3.76893
ltibia 18.75
lfoot 316.336 0.499498
ltoes -15.2871
